<svg width="18" height="10" viewBox="0 0 18 10" fill="none" xmlns="http://www.w3.org/2000/svg">
<path id="Vector" d="M17.7602 1.42322L9.57883 9.75562C9.50285 9.83309 9.41262 9.89455 9.3133 9.93649C9.21398 9.97842 9.10752 10 9 10C8.89248 10 8.78602 9.97842 8.6867 9.93649C8.58738 9.89455 8.49715 9.83309 8.42116 9.75562L0.239761 1.42322C0.0862446 1.26687 0 1.05482 0 0.833703C0 0.612592 0.0862446 0.400535 0.239761 0.244186C0.393277 0.0878359 0.60149 0 0.818595 0C1.0357 0 1.24391 0.0878359 1.39743 0.244186L9 7.98811L16.6026 0.244186C16.6786 0.166769 16.7688 0.105359 16.8681 0.0634615C16.9675 0.021564 17.0739 0 17.1814 0C17.2889 0 17.3953 0.021564 17.4947 0.0634615C17.594 0.105359 17.6842 0.166769 17.7602 0.244186C17.8363 0.321602 17.8965 0.413509 17.9377 0.514659C17.9788 0.615808 18 0.72422 18 0.833703C18 0.943187 17.9788 1.0516 17.9377 1.15275C17.8965 1.2539 17.8363 1.3458 17.7602 1.42322Z" fill="white"/>
</svg>
