<svg xmlns="http://www.w3.org/2000/svg" width="27" height="27" viewBox="0 0 27 27" fill="none">
    <path d="M25.8775 24.4903C23.9738 21.1991 21.04 18.8391 17.6163 17.7203C19.3098 16.7122 20.6256 15.1759 21.3616 13.3476C22.0975 11.5192 22.2129 9.49984 21.6901 7.59953C21.1673 5.69923 20.0351 4.02308 18.4675 2.82849C16.8999 1.63391 14.9835 0.986938 13.0125 0.986938C11.0416 0.986938 9.12521 1.63391 7.55758 2.82849C5.98995 4.02308 4.85779 5.69923 4.33497 7.59953C3.81215 9.49984 3.92758 11.5192 4.66353 13.3476C5.39948 15.1759 6.71525 16.7122 8.4088 17.7203C4.98505 18.8378 2.0513 21.1978 0.147545 24.4903C0.0777316 24.6042 0.0314245 24.7308 0.0113565 24.8629C-0.00871156 24.9949 -0.00213409 25.1296 0.0307008 25.259C0.0635357 25.3885 0.121963 25.51 0.202535 25.6165C0.283108 25.723 0.384193 25.8123 0.499827 25.8791C0.615461 25.9459 0.743301 25.9888 0.875805 26.0054C1.00831 26.022 1.14279 26.0119 1.27132 25.9756C1.39985 25.9394 1.51982 25.8778 1.62415 25.7944C1.72849 25.7111 1.81507 25.6077 1.8788 25.4903C4.2338 21.4203 8.3963 18.9903 13.0125 18.9903C17.6288 18.9903 21.7913 21.4203 24.1463 25.4903C24.21 25.6077 24.2966 25.7111 24.4009 25.7944C24.5053 25.8778 24.6252 25.9394 24.7538 25.9756C24.8823 26.0119 25.0168 26.022 25.1493 26.0054C25.2818 25.9888 25.4096 25.9459 25.5253 25.8791C25.6409 25.8123 25.742 25.723 25.8226 25.6165C25.9031 25.51 25.9616 25.3885 25.9944 25.259C26.0272 25.1296 26.0338 24.9949 26.0137 24.8629C25.9937 24.7308 25.9474 24.6042 25.8775 24.4903ZM6.01255 9.99034C6.01255 8.60587 6.42309 7.25249 7.19226 6.10135C7.96143 4.9502 9.05468 4.053 10.3338 3.52318C11.6128 2.99337 13.0203 2.85475 14.3782 3.12484C15.736 3.39494 16.9833 4.06162 17.9623 5.04059C18.9413 6.01956 19.6079 7.26684 19.878 8.62471C20.1481 9.98257 20.0095 11.39 19.4797 12.6691C18.9499 13.9482 18.0527 15.0415 16.9015 15.8106C15.7504 16.5798 14.397 16.9903 13.0125 16.9903C11.1566 16.9884 9.37732 16.2502 8.06499 14.9379C6.75267 13.6256 6.01453 11.8462 6.01255 9.99034Z" fill="white"/>
</svg>